<?xml version="1.0" standalone="no"?>
<!DOCTYPE svg PUBLIC "-//W3C//DTD SVG 20010904//EN"
 "http://www.w3.org/TR/2001/REC-SVG-20010904/DTD/svg10.dtd">
<svg version="1.0" xmlns="http://www.w3.org/2000/svg"
 width="700.000000pt" height="700.000000pt" viewBox="0 0 700.000000 700.000000"
 preserveAspectRatio="xMidYMid meet">
<metadata>
Created by potrace 1.14, written by Peter Selinger 2001-2017
</metadata>
<g transform="translate(0.000000,700.000000) scale(0.100000,-0.100000)"
fill="#000000" stroke="none">
<path d="M964 3897 l1 -1472 485 0 c498 1 665 7 803 30 15 3 42 7 60 10 17 3
61 13 97 21 36 9 74 17 84 20 11 2 56 16 100 30 347 115 587 329 715 638 47
112 83 240 97 336 2 19 7 44 9 55 24 111 24 586 0 657 -2 7 -6 31 -9 53 -21
152 -82 339 -151 456 -19 33 -35 62 -35 65 0 6 -2 8 -76 98 -97 117 -196 198
-333 269 -120 62 -303 127 -406 143 -22 3 -43 8 -46 10 -7 4 -122 22 -185 29
-27 3 -69 8 -94 11 -25 3 -286 7 -581 9 l-537 3 2 -1471z m1146 1129 c457 -64
727 -267 839 -630 26 -85 58 -260 61 -341 8 -166 1 -378 -14 -451 -2 -12 -7
-39 -10 -60 -4 -22 -16 -72 -27 -112 -104 -371 -342 -575 -764 -653 -94 -18
-164 -22 -472 -26 l-363 -5 0 1147 0 1147 353 -5 c193 -3 372 -8 397 -11z"/>
<path d="M4070 3896 l0 -1472 200 0 200 -1 0 591 0 591 313 1 c174 1 354 7
407 13 343 43 573 186 690 426 66 136 87 239 88 433 1 269 -54 444 -195 612
-29 35 -134 115 -193 148 -67 37 -209 88 -270 97 -25 4 -56 9 -70 12 -91 16
-209 20 -661 20 l-509 1 0 -1472z m1103 1120 c151 -44 266 -134 321 -251 78
-166 74 -412 -9 -575 -32 -63 -116 -147 -182 -183 -112 -60 -176 -69 -520 -72
l-313 -2 0 554 0 555 323 -5 c262 -4 333 -8 380 -21z"/>
</g>
</svg>
